<?xml version="1.0" standalone="no"?>
<!DOCTYPE svg PUBLIC "-//W3C//DTD SVG 20010904//EN"
 "http://www.w3.org/TR/2001/REC-SVG-20010904/DTD/svg10.dtd">
<svg version="1.0" xmlns="http://www.w3.org/2000/svg"
 width="980.000000pt" height="186.000000pt" viewBox="0 0 980.000000 186.000000"
 preserveAspectRatio="xMidYMid meet">

<g transform="translate(0.000000,186.000000) scale(0.100000,-0.100000)"
fill="none" fill-rule="evenodd" stroke-width="2" stroke="none">
<path stroke="#000000" fill="#000000" d="M3200 1145 l0 -715 70 0 70 0 0 354 0 354 55 50 c79 73 144 102 225
102 86 0 127 -22 160 -86 l25 -48 3 -363 3 -363 74 0 75 0 0 343 c0 374 -7
437 -56 527 -48 88 -123 124 -251 119 -106 -5 -168 -31 -255 -109 l-58 -52 0
301 0 301 -70 0 -70 0 0 -715z"/>
<path stroke="#000000" fill="#000000"  d="M1913 1796 c-92 -42 -59 -186 44 -186 64 1 110 54 99 114 -12 65 -81
99 -143 72z"/>
<path stroke="#000000" fill="#000000"  d="M8593 1803 c-52 -10 -84 -110 -50 -154 47 -61 156 -46 175 25 24 85
-37 148 -125 129z"/>
<path stroke="#000000" fill="#000000"  d="M455 1738 c-23 -67 -445 -1302 -445 -1305 0 -2 33 -3 74 -3 l74 0 66
205 67 205 247 0 247 0 64 -205 65 -205 77 0 78 0 -155 458 c-86 251 -186 547
-223 657 l-68 200 -81 3 c-60 2 -84 -1 -87 -10z m110 -205 c14 -49 60 -194
101 -324 40 -129 74 -238 74 -242 0 -4 -93 -7 -206 -7 -161 0 -205 3 -201 13
23 62 165 519 187 605 6 23 13 42 15 42 2 0 16 -39 30 -87z"/>
<path stroke="#000000" fill="#000000"  d="M7055 1738 c-3 -7 -6 -245 -7 -528 -3 -502 -4 -516 -24 -561 -12 -25
-39 -59 -60 -75 -32 -25 -48 -29 -115 -33 -70 -3 -83 0 -129 25 -30 16 -65 46
-83 71 -17 24 -33 43 -35 43 -8 0 -101 -64 -102 -70 0 -3 17 -27 38 -55 73
-97 176 -145 313 -145 177 0 294 91 333 260 13 54 16 152 16 573 l0 507 -70 0
c-47 0 -72 -4 -75 -12z"/>
<path stroke="#000000" fill="#000000"  d="M1276 1672 c-2 -4 -7 -57 -11 -117 -9 -164 -2 -152 -90 -160 l-75 -7
0 -54 0 -54 75 0 74 0 3 -343 3 -343 30 -59 c42 -83 97 -116 201 -123 53 -3
94 0 140 13 35 9 64 18 64 19 0 1 -7 26 -16 55 -12 43 -18 51 -32 46 -9 -4
-48 -10 -87 -12 -62 -5 -73 -2 -99 18 -58 45 -60 64 -64 412 l-3 317 135 0
136 0 0 60 0 60 -135 0 -135 0 0 140 0 140 -54 0 c-30 0 -57 -3 -60 -8z"/>
<path stroke="#000000" fill="#000000"  stroke="#000000" fill="#000000"  d="M2515 1411 c-107 -26 -195 -117 -211 -219 -19 -117 57 -222 201 -281
44 -17 108 -44 143 -58 129 -53 177 -106 169 -186 -9 -98 -74 -142 -207 -142
-71 1 -95 5 -145 28 -32 15 -74 39 -91 52 -18 14 -37 25 -41 25 -9 0 -73 -79
-73 -89 0 -10 91 -66 143 -89 71 -31 157 -45 249 -40 188 10 308 118 308 277
0 142 -77 216 -314 302 -187 67 -235 132 -179 241 14 30 67 61 121 73 51 11
155 -13 216 -50 l54 -33 33 46 33 45 -34 28 c-58 49 -159 79 -258 78 -48 -1
-100 -4 -117 -8z"/>
<path stroke="#000000" fill="#000000"  d="M4495 1405 c-72 -19 -102 -32 -172 -71 l-63 -35 20 -37 c35 -68 31
-66 101 -28 215 116 389 78 428 -94 23 -98 26 -94 -106 -114 -127 -19 -269
-61 -336 -101 -56 -32 -112 -92 -132 -137 -9 -22 -15 -67 -15 -110 1 -123 53
-207 156 -248 44 -18 68 -21 136 -18 100 5 174 32 257 93 57 42 59 43 65 22 3
-12 6 -39 6 -59 l0 -38 61 0 60 0 -3 373 c-3 365 -4 373 -27 431 -31 77 -99
147 -166 169 -59 21 -198 22 -270 2z m325 -605 l0 -140 -52 -41 c-81 -65 -145
-89 -232 -89 -85 0 -129 22 -158 80 -55 108 9 220 157 275 62 23 197 53 248
54 l37 1 0 -140z"/>
<path stroke="#000000" fill="#000000"  d="M7765 1405 c-72 -19 -102 -32 -172 -71 l-63 -35 20 -37 c35 -68 31
-66 101 -28 215 116 389 78 428 -94 23 -98 26 -94 -106 -114 -127 -19 -269
-61 -336 -101 -56 -32 -112 -92 -132 -137 -9 -22 -15 -67 -15 -110 1 -123 53
-207 156 -248 44 -18 68 -21 136 -18 100 5 174 32 257 93 57 42 59 43 65 22 3
-12 6 -39 6 -59 l0 -38 61 0 60 0 -3 373 c-3 365 -4 373 -27 431 -31 77 -99
147 -166 169 -59 21 -198 22 -270 2z m325 -605 l0 -140 -52 -41 c-81 -65 -145
-89 -232 -89 -85 0 -129 22 -158 80 -55 108 9 220 157 275 62 23 197 53 248
54 l37 1 0 -140z"/>
<path stroke="#000000" fill="#000000"  d="M9400 1411 c-49 -15 -107 -50 -167 -100 -58 -48 -61 -50 -67 -28 -3
12 -6 43 -6 70 l0 47 -60 0 -60 0 0 -485 0 -485 70 0 70 0 0 354 0 353 55 52
c75 71 142 101 226 101 83 0 124 -24 159 -95 l25 -50 3 -357 3 -358 76 0 75 0
-4 368 c-4 311 -8 375 -22 421 -46 144 -124 201 -271 200 -44 0 -91 -4 -105
-8z"/>
<path stroke="#000000" fill="#000000"  d="M1880 915 l0 -485 75 0 75 0 0 485 0 485 -75 0 -75 0 0 -485z"/>
<path stroke="#000000" fill="#000000"  d="M5145 1380 c4 -11 90 -226 192 -478 101 -251 185 -469 185 -484 -1
-41 -59 -171 -97 -216 -46 -53 -107 -77 -174 -68 -55 7 -55 7 -66 -66 -6 -42
-5 -46 17 -51 12 -4 53 -7 89 -7 126 0 225 73 300 223 27 52 409 1136 409
1158 0 5 -31 9 -68 9 l-68 0 -107 -327 c-58 -181 -118 -368 -133 -417 -31
-101 -30 -101 -75 32 -16 48 -82 228 -146 400 l-116 312 -74 0 c-70 0 -74 -1
-68 -20z"/>
<path stroke="#000000" fill="#000000"  d="M8550 915 l0 -485 75 0 75 0 0 485 0 485 -75 0 -75 0 0 -485z"/>
</g>
</svg>
